<svg xmlns="http://www.w3.org/2000/svg" viewBox="8 2 64 104" fill="none">
  <!-- Favicon: pin only (no spark) so the S-mark reads at 16px. -->
  <path fill="#0E2744" d="M40 3c16.6 0 30 13.2 30 30.2 0 20.4-19.2 37.6-30 70.8C29.2 70.8 10 53.6 10 33.2 10 16.2 23.4 3 40 3Z"/>
  <g clip-path="url(#sg-fav)">
    <circle cx="29.5" cy="25.5" r="6.6" fill="#00A3FF"/>
    <path fill="#00A3FF" d="M15 53.5 33 65.5 16.5 72Z"/>
    <path stroke="#fff" stroke-width="6" stroke-linecap="round" stroke-linejoin="round" d="M22 36c15.5-6 26 3 19 14-7.5 11.5-6 21 9 32"/>
  </g>
  <defs>
    <clipPath id="sg-fav">
      <path d="M40 3c16.6 0 30 13.2 30 30.2 0 20.4-19.2 37.6-30 70.8C29.2 70.8 10 53.6 10 33.2 10 16.2 23.4 3 40 3Z"/>
    </clipPath>
  </defs>
</svg>
